<?xml version="1.0" encoding="UTF-8" standalone="no" ?>
<!DOCTYPE svg PUBLIC "-//W3C//DTD SVG 1.1//EN" "http://www.w3.org/Graphics/SVG/1.1/DTD/svg11.dtd">
<svg xmlns="http://www.w3.org/2000/svg" xmlns:xlink="http://www.w3.org/1999/xlink" version="1.1" width="1080" height="1080" viewBox="0 0 1080 1080" xml:space="preserve">
<desc>Created with Fabric.js 5.2.4</desc>
<defs>
</defs>
<g transform="matrix(1 0 0 1 540 540)" id="209ea631-5e8a-4fd1-b6a1-91973984a894"  >
</g>
<g transform="matrix(1 0 0 1 540 540)" id="20cadfe7-49e0-4945-9fcc-17888984a1fb"  >
<rect style="stroke: none; stroke-width: 1; stroke-dasharray: none; stroke-linecap: butt; stroke-dashoffset: 0; stroke-linejoin: miter; stroke-miterlimit: 4; fill: rgb(0,0,0); fill-rule: nonzero; opacity: 1;" vector-effect="non-scaling-stroke"  x="-540" y="-540" rx="0" ry="0" width="1080" height="1080" />
</g>
<g transform="matrix(11.62 0 0 11.62 555.16 514.66)" id="25434087-7928-4e6a-a50b-ff62a3534a7f"  >
<rect style="stroke: rgb(0,0,0); stroke-width: 0; stroke-dasharray: none; stroke-linecap: butt; stroke-dashoffset: 0; stroke-linejoin: miter; stroke-miterlimit: 4; fill: rgb(255,255,255); fill-rule: nonzero; opacity: 1;" vector-effect="non-scaling-stroke"  x="-33.085" y="-33.085" rx="0" ry="0" width="66.17" height="66.17" />
</g>
<g transform="matrix(1.26 0 0 1.26 539.4 539.4)"  >
<path style="stroke: rgb(0,0,0); stroke-width: 0; stroke-dasharray: none; stroke-linecap: butt; stroke-dashoffset: 0; stroke-linejoin: miter; stroke-miterlimit: 4; fill: rgb(0,0,0); fill-rule: nonzero; opacity: 1;" vector-effect="non-scaling-stroke"  transform=" translate(-512.97, -527.03)" d="M 116.07151 599.970581 C 116.687057 587.200439 116.863846 574.946472 119.768013 562.806335 C 123.053879 549.070862 121.755127 535.021423 120.71035 521.039612 C 119.557869 505.616394 117.316948 490.26297 117.979729 474.710327 C 118.554932 461.212799 116.78833 447.775879 116.364334 434.306641 C 116.076965 425.177612 116.431656 415.969543 117.314529 406.875977 C 118.741112 392.182251 117.770126 377.590942 116.459557 363.000946 C 114.402893 340.10498 112.056602 317.130554 115.215828 294.273254 C 116.686127 283.635468 118.518349 272.910889 121.09037 262.375793 C 125.052345 246.147369 136.513275 238.31781 151.436203 233.958221 C 158.353455 231.937408 165.138382 231.681488 171.997833 234.355072 C 173.765121 235.0439 176.132111 235.321655 177.88002 234.745636 C 187.61409 231.537872 197.909363 229.213882 204.062012 219.67601 C 209.255371 211.625229 215.513062 204.608124 223.716644 199.403488 C 226.518295 197.626038 228.638565 194.91983 230.498535 192.128067 C 233.207153 188.062485 236.591629 184.694336 240.423355 181.665237 C 242.752258 179.824158 245.06218 177.732681 246.713791 175.300842 C 253.510849 165.292755 260.504456 155.392303 266.113098 144.632278 C 272.947327 131.520905 287.877502 126.38208 300.951141 130.485138 C 309.831604 133.272217 318.735107 135.603455 328.212891 136.25592 C 342.713043 137.25412 355.786011 132.977356 367.872681 126.253075 C 380.056366 119.474831 392.039154 120.215492 404.588348 123.366295 C 413.533722 125.612267 421.873383 129.368362 429.55481 134.368134 C 436.489838 138.882095 444.494934 139.77153 452.116119 141.978943 C 455.528717 142.967377 458.694946 144.163788 461.296143 146.748062 C 463.864929 149.30011 467.250244 150.335312 470.741272 150.94519 C 486.155609 153.63797 501.532532 153.47319 516.914429 150.53537 C 530.051208 148.026321 543.462769 148.827179 556.726624 147.606995 C 566.81134 146.679245 575.165039 142.724899 583.533264 137.721497 C 603.917725 125.533485 625.595154 119.339035 649.710693 122.87867 C 669.805725 125.828171 690.279358 127.184433 709.86377 132.293594 C 724.264709 136.050491 739.420593 135.769318 753.234375 140.98819 C 772.983215 148.44928 793.078308 155.281296 811.586487 165.686783 C 822.117126 171.607208 833.421204 175.553528 844.66803 179.715912 C 846.996033 180.577469 849.39209 181.56575 851.363464 183.026428 C 859.937256 189.379044 869.029419 194.905701 878.100281 200.490616 C 883.009338 203.513153 886.895203 207.706085 889.044861 213.149155 C 892.701965 222.409409 898.968018 230.597122 900.421265 240.754868 C 900.679749 242.561432 901.158875 244.452698 900.881836 246.201172 C 898.740601 259.714783 901.792786 273.099365 901.674133 286.528137 C 901.587524 296.33078 900.128296 306.195221 901.220398 315.950928 C 902.478943 327.193878 902.038818 338.326843 899.929626 349.269775 C 896.90979 364.937103 893.763367 380.645935 884.588074 394.343811 C 879.268005 402.286255 877.471191 411.483459 876.947083 420.924988 C 876.210144 434.200439 873.345215 446.4823 866.168091 458.283966 C 856.196472 474.680908 851.68335 493.294464 854.553528 512.472717 C 856.021423 522.281494 859.518494 532.033569 865.973022 540.401855 C 875.244446 552.42218 880.372253 566.273132 884.358276 581.002869 C 888.064636 594.698914 889.905884 608.763794 893.887878 622.283569 C 896.689209 631.794922 901.237122 640.847595 905.55304 649.842163 C 910.286072 659.706055 913.84967 669.72937 914.552917 680.780579 C 915.430298 694.56604 917.728577 708.315002 917.784668 722.086365 C 917.873901 744.034058 917.389404 766.043396 912.444763 787.650146 C 911.752502 790.675049 911.896301 793.962585 912.080994 797.103271 C 912.5979 805.890564 909.00177 813.016785 903.284363 819.209229 C 895.261414 827.898926 888.124817 837.366455 880.111938 846.022522 C 867.92041 859.192871 856.048218 872.726868 842.370911 884.443054 C 834.905396 890.838196 828.974731 898.82196 820.925598 904.62262 C 810.98822 911.783997 800.585144 917.760864 788.313293 919.968445 C 779.0896 921.627747 770.5271 925.573303 761.752869 928.613403 C 742.085876 935.427673 722.964783 934.084106 704.191345 926.375549 C 684.659729 918.355652 664.499268 917.158813 643.863403 918.971375 C 639.475891 919.35675 635.366394 920.803406 631.404663 922.503479 C 616.626892 928.845032 601.580017 928.565308 586.403137 924.533081 C 572.073669 920.72583 557.931152 916.13031 543.480591 912.888123 C 530.37793 909.948425 516.920166 911.28186 503.683716 912.669617 C 484.789825 914.650391 466.209961 918.676819 447.579254 922.313904 C 441.611145 923.479004 435.702057 923.528259 429.84024 921.450378 C 425.105225 919.771912 420.175018 918.963135 415.122101 918.976135 C 395.135406 919.027466 375.181061 918.886902 355.208893 917.297791 C 341.584106 916.213806 327.745819 917.525085 314.788025 922.159668 C 308.238129 924.502441 302.011688 927.669861 295.025146 928.728149 C 277.437561 931.392334 260.188477 930.582825 243.434723 924.02179 C 230.098877 918.799194 216.751282 913.733276 202.701141 910.490601 C 193.026215 908.257629 184.263809 902.8255 177.238708 896.14502 C 167.979736 887.34021 157.690155 880.199585 147.307571 873.010681 C 136.447144 865.490906 132.517395 854.419922 130.881943 841.816833 C 127.884804 818.720581 126.816429 795.300598 121.186577 772.635193 C 117.453896 757.607666 113.563507 742.636536 110.163681 727.516907 C 107.038887 713.6203 107.808029 700.084351 110.653191 686.427612 C 113.1688 674.352783 115.296906 662.32312 114.165169 649.819397 C 112.672462 633.327454 114.823677 616.89032 116.07151 599.970581 M 502.641785 368.158081 C 478.507721 388.101135 454.413025 408.092224 430.194092 427.931671 C 426.842926 430.676849 425.149261 433.487091 425.173004 438.02298 C 425.352753 472.344299 425.259491 506.666992 425.300598 540.989197 C 425.302673 542.721191 424.654297 544.672913 427.09317 546.950745 C 541.597473 449.994263 656.160156 352.988373 770.843323 255.880417 C 768.147278 253.197571 765.740051 253.418884 763.451172 253.445724 C 754.792236 253.547302 746.133911 253.882736 737.476074 253.857544 C 706.990906 253.768875 676.505798 253.595474 646.021301 253.36763 C 642.685059 253.342712 639.997437 254.166733 637.372437 256.370026 C 622.831726 268.575043 608.141785 280.602203 593.526245 292.718262 C 563.396851 317.695099 533.281982 342.689636 502.641785 368.158081 M 775.21698 679.281433 C 774.976196 675.850037 775.14502 672.606567 771.95459 669.838318 C 730.555847 633.91864 689.291077 597.844788 647.978699 561.8255 C 629.771912 545.951477 611.540894 530.105164 593.302307 514.267761 C 590.747925 512.049683 589.1745 510.274017 592.778015 507.233948 C 619.512512 484.679504 646.044678 461.885132 672.771057 439.320831 C 705.862671 411.382507 739.068237 383.578918 772.26886 355.769958 C 774.635986 353.787231 775.858887 351.640717 775.637878 348.481506 C 774.450317 331.511627 775.115479 314.510284 774.871948 297.52356 C 774.847229 295.802338 775.478638 293.785187 772.282471 291.824249 C 687.177185 364.044403 601.764404 436.525482 516.354614 509.004059 C 524.138916 518.270813 770.122375 732.871155 775.317566 734.512939 C 775.317566 716.185059 775.317566 698.178345 775.21698 679.281433 M 548.402832 690.080566 C 551.655334 692.937256 554.910828 695.790527 558.159851 698.651123 C 584.907959 722.202026 611.66272 745.745422 638.389893 769.320129 C 640.958069 771.58551 643.548096 773.040649 647.255676 773.026245 C 685.732361 772.87616 724.209656 772.918579 762.686768 772.863037 C 764.77124 772.860046 766.994995 773.336365 769.291199 771.75293 C 767.776123 768.607239 765.012146 766.703003 762.586853 764.564087 C 715.873291 723.367004 669.161987 682.167419 622.39624 641.029663 C 591.634583 613.969849 560.747314 587.05249 530.031982 559.940369 C 526.326538 556.669617 523.88269 555.90564 519.672485 559.64856 C 501.632904 575.685852 483.206299 591.287659 464.928528 607.057251 C 460.016693 611.295044 459.99765 612.515625 464.87442 616.798828 C 492.526794 641.085876 520.192139 665.358215 548.402832 690.080566 M 382.594971 594.097229 C 377.529083 598.916626 372.429535 603.701111 367.403351 608.561584 C 348.848297 626.504822 330.353729 644.510681 311.767487 662.421509 C 292.102203 681.372192 272.378082 700.262024 252.622681 719.118774 C 250.292526 721.342957 249.236298 723.713806 249.275909 727.006592 C 249.438171 740.496155 249.458115 753.990173 249.287537 767.47937 C 249.235535 771.593079 250.680283 773.023071 254.806885 773.013611 C 308.772797 772.889526 362.739044 772.85321 416.705017 772.922913 C 421.14389 772.92865 422.839935 771.63678 422.831329 766.941467 C 422.706116 698.651184 422.748901 630.360535 422.695435 562.070068 C 422.694153 560.421204 423.476013 558.365723 420.744476 556.769226 C 408.256714 568.988098 395.67865 581.295288 382.594971 594.097229 M 376.113098 459.595001 C 390.413818 447.610474 404.688263 435.59436 419.040161 423.671448 C 421.532471 421.600952 422.757172 419.330261 422.752869 415.986359 C 422.685974 364.161163 422.731323 312.335815 422.712219 260.510529 C 422.710083 254.698273 421.912048 253.927826 415.981354 253.903458 C 403.316925 253.851425 390.651581 253.98288 377.987457 253.902161 C 338.833649 253.652618 299.675812 254.500122 260.523743 253.46402 C 257.526337 253.384705 254.303497 252.603683 251.401672 254.410568 C 252.218414 256.897125 254.022659 258.20108 255.528503 259.704865 C 280.996399 285.137939 306.42569 310.610352 332.037109 335.898285 C 335.734406 339.548889 337.415527 343.184845 337.392242 348.510834 C 337.194977 393.669403 337.301514 438.829285 337.348175 483.98877 C 337.349976 485.742126 336.614716 488.009155 338.618713 488.984161 C 340.585876 489.941223 341.997742 488.105499 343.359283 486.97229 C 354.114471 478.020935 364.83609 469.029266 376.113098 459.595001 M 309.68396 360.663391 C 310.581696 355.18219 308.134674 351.404388 304.248108 347.634796 C 287.383636 331.277863 270.824005 314.606873 254.104385 298.099854 C 252.909485 296.920135 252.056274 295.051147 249.91008 295.087524 C 248.288483 306.201904 249.08107 678.002563 250.729187 681.598816 C 252.220352 681.482178 252.970703 680.266357 253.891281 679.366943 C 270.933197 662.715454 287.883392 645.968994 305.044525 629.441467 C 308.43811 626.173157 309.819794 622.826477 309.81189 618.085205 C 309.669617 532.597107 309.695129 447.108673 309.68396 360.663391 z" stroke-linecap="round" />
</g>
</svg>